<svg fill="none" height="14" viewBox="0 0 14 14" width="14" xmlns="http://www.w3.org/2000/svg"><path clip-rule="evenodd" d="m13.3715.638911c-.3944-.394388-1.0314-.394388-1.4258 0l-4.94505 4.934899-4.94501-4.945012c-.39439-.394387-1.03148-.394387-1.425865 0-.394388.394392-.394388 1.031472 0 1.425862l4.945015 4.94501-4.945015 4.94503c-.394388.3944-.394388 1.0315 0 1.4259.394385.3943 1.031475.3943 1.425865 0l4.94501-4.94506 4.94505 4.94506c.3944.3943 1.0314.3943 1.4258 0 .3944-.3944.3944-1.0315 0-1.4259l-4.94499-4.94503 4.94499-4.94501c.3843-.38427.3843-1.03147 0-1.415749z" fill="#3c4043" fill-rule="evenodd"/></svg>