<svg fill="none" height="78" viewBox="0 0 92 78" width="92" xmlns="http://www.w3.org/2000/svg"><g fill="#000"><path d="m51.875 14.375h-3.125v9h3.125z"/><path d="m51.875 9v-1.125c0-4.125-3.375-7.5-7.5-7.5h-1.125v3.125h1.125c2.375 0 4.375 2 4.375 4.375v1.125z"/><path d="m37.875 48.875h-9v3.125h9z"/><path d="m23.375 48.875h-9v3.125h9z"/><path d="m3.5 28.875h-3.125v9h3.125z"/><path d="m3.5 14.375h-3.125v9h3.125z"/><path d="m7.875 52h1.125v-3.125h-1.125c-2.375 0-4.375-2-4.375-4.375v-1.125h-3.125v1.125c0 4.125 3.375 7.5 7.5 7.5z"/><path d="m7.875 3.5h1.125v-3.125h-1.125c-4.125 0-7.5 3.375-7.5 7.5v1.125h3.125v-1.125c0-2.375 2-4.375 4.375-4.375z"/><path d="m23.375.375h-9v3.125h9z"/><path d="m37.875.375h-9v3.125h9z"/><path d="m32.6249 25.5c.875 0 1.5-.625 1.5-1.5 0-.5-.25-1-.625-1.25l-6.25-4.75c-.5-.5-1.375-.5-1.875 0l-6.25 4.75c-.625.5-.75 1.5-.25 2.125s1.5.75 2.125.25l3.875-2.75v11.25c0 .875.625 1.5 1.5 1.625h.25c.75-.125 1.375-.75 1.375-1.5v-11.25l3.875 2.75s.375.25.75.25z"/><path d="m85.375 27h-38.125c-1.625 0-3.25.625-4.375 1.875-1.25 1-1.875 2.625-1.875 4.25v38.125c0 1.625.625 3.25 1.875 4.375 1.125 1.125 2.75 1.875 4.375 1.875h38.125c1.625 0 3.25-.625 4.375-1.875s1.875-2.75 1.875-4.375v-38.125c0-1.625-.625-3.25-1.875-4.375s-2.625-1.75-4.375-1.75zm3.375 44.375c0 .875-.375 1.75-1 2.375s-1.5 1-2.375 1h-38.125c-.875 0-1.75-.375-2.375-1s-1-1.5-1-2.375v-6.5l5.75-5.75 6.125 6.125c.125.125.25.25.5.375.5.25 1.125.125 1.625-.375l15.625-15.75 15.25 15.25zm0-10.75-14.25-14.125c-.125-.125-.25-.25-.5-.375-.375-.125-.75-.125-1.125 0-.125.125-.375.125-.5.375l-15.625 15.625-6.125-6.125c-.25-.25-.625-.375-1-.375s-.75.125-1 .375l-4.75 4.75v-27.5c0-.875.375-1.75 1-2.375s1.5-1 2.375-1h38.125c.875 0 1.75.375 2.375 1s1 1.5 1 2.375z"/><path d="m60.625 43.125c.125-.875-.125-1.75-.625-2.5s-1.25-1.25-2.125-1.5c-.375-.125-.75-.125-1.125-.125-.5 0-1 .125-1.5.25-.875.375-1.5 1-1.875 1.75s-.5 1.75-.375 2.5c.125.875.625 1.625 1.375 2.25.625.5 1.5.875 2.375.875 1 0 2-.375 2.75-1.125.625-.75 1-1.5 1.125-2.375z"/></g></svg>