<svg fill="none" height="16" viewBox="0 0 19 16" width="19" xmlns="http://www.w3.org/2000/svg"><g fill="#fff"><path clip-rule="evenodd" d="m4.8242 4.67039c-2.40242.09031-4.324591 2.04826-4.324591 4.4475 0 2.45641 2.015861 4.45051 4.498161 4.45051h1.19578v-1.188h-1.19578c-1.82008 0-3.29752-1.4619-3.29752-3.26248 0-1.80109 1.4773-3.26311 3.29752-3.26311.28587 0 .57213.03635.85664.06007.2761-2.27703 1.6452-4.2274 4.24099-4.2274 2.3189 0 4.2021 1.86352 4.2021 4.15828 0 .61416.0299.59957 0 1.35987.428 0 3.0015.38962 3.0015 2.79857 0 1.3116-1.0757 2.3761-2.4012 2.3761h-1.8009v1.1881h1.8009c1.9875 0 3.6018-1.5974 3.6018-3.5642 0-1.77806-1.3183-3.25362-3.04-3.52084.0252-.20911.0385-.4218.0385-.63739 0-2.95058-2.4211-5.346361-5.4027-5.346361-2.57412 0-4.72955 1.784981-5.2712 4.170781z" fill-rule="evenodd"/><path d="m6.77989 10.6213-.84545-.80847 3.57385-3.39869 3.55671 3.40094-.8479.80632-2.105-2.01249-.0067 7.09039-1.21236-.0011.00665-7.0933z"/><path clip-rule="evenodd" d="m4.70436 4.52617c.59779-2.39767 2.78637-4.176561 5.39104-4.176561 3.063 0 5.5527 2.461461 5.5527 5.496361 0 .17326-.0083.34465-.0243.51383 1.723.33492 3.0258 1.83902 3.0258 3.6444 0 2.0511-1.6829 3.7142-3.7518 3.7142h-1.9509v-1.4881h1.9509c1.2441 0 2.2512-.9988 2.2512-2.2261 0-1.13791-.6023-1.79362-1.2647-2.17244-.671-.38371-1.3949-.47613-1.5868-.47613h-.156l.0061-.15589c.0187-.47582.0139-.63978.0077-.85106-.0036-.12569-.0078-.26812-.0078-.50292 0-2.21043-1.8145-4.00828-4.0521-4.00828-1.25632 0-2.20698.47026-2.87934 1.21066-.6754.74375-1.07743 1.76889-1.21274 2.88479l-.01739.14343-.14397-.012c-.07656-.00638-.15177-.01349-.22605-.02051-.21023-.01987-.41305-.03904-.61814-.03904-1.73886 0-3.14752 1.39633-3.14752 3.11311 0 1.71618 1.40877 3.11248 3.14752 3.11248h1.34578v1.488h-1.34578c-2.56363 0-4.648161-2.0598-4.648161-4.60051 0-2.44343 1.926971-4.44176 4.354751-4.59172zm5.39104-3.876561c-2.50352 0-4.59866 1.735961-5.12492 4.053991l-.02551.11236-.11514.00433c-2.32356.08734-4.180221 1.98073-4.180221 4.2976 0 2.37201 1.947181 4.30051 4.348161 4.30051h1.04578v-.888h-1.04578c-1.90141 0-3.44752-1.5276-3.44752-3.41248 0-1.88541 1.54594-3.41311 3.44752-3.41311.22051 0 .44378.02112.65793.04138.02304.00218.04597.00435.06878.00649.15725-1.10683.57256-2.13876 1.26949-2.90623.73016-.80404 1.76193-1.30897 3.10143-1.30897 2.4003 0 4.3521 1.9292 4.3521 4.30828 0 .21856.004.35805.0076.4841.0055.19555.0102.35877-.0024.73476.3318.03245.9751.1605 1.5805.50672.7313.41822 1.4158 1.16177 1.4158 2.43286 0 1.3959-1.1444 2.5261-2.5512 2.5261h-1.6509v.8881h1.6509c1.9062 0 3.4518-1.5318 3.4518-3.4142 0-1.70178-1.262-3.11638-2.913-3.37261l-.1432-.02224.0173-.14393c.0245-.20332.0374-.41002.0374-.61945 0-2.86626-2.3524-5.196361-5.2527-5.196361zm-.58683 5.557271 3.77383 3.6085-1.0656 1.01322-1.955-1.86908-.0065 6.88998-1.5124-.0015.00646-6.89308-1.96975 1.87368-1.06252-1.01607zm-3.35678 3.60625.62837.60087 2.26985-2.15912-.00683 7.29342.91239.0009.00684-7.29091 2.25499 2.15581.6303-.59933-3.3397-3.19336z" fill-rule="evenodd"/></g></svg>